# xmcd
#
# Track frame offsets:
#	151
#	30074
#	59072
#	92130
#	116171
#	139167
#	165550
#
# Disc length: 3647 seconds
#
# Revision: 1
# Processed by: cddbd v1.5PL3 Copyright (c) Steve Scherf et al.
# Submitted via: CDmax 2.0
#
DISCID=590e3d07
DTITLE=Eric Clapton - M.S.G. (disc1)
DYEAR=1987
DGENRE=Blues
TTITLE0=Crossroads
TTITLE1=White Room
TTITLE2=I Shot the Sheriff
TTITLE3=Hung Up on Your Love
TTITLE4=Wonderful Tonight
TTITLE5=Miss You
TTITLE6=Same Old Blues
EXTD=Eric Clapton\tvocals, guitar\nNathan East\tbass\nPhil Collins\tdrums\nGr
EXTD=eg Phillinganes\tkeyboards\n\nRecorded live at Madison Square Garden, NY
EXTD=, USA on April 27, 1987
EXTT0=
EXTT1=
EXTT2=
EXTT3=
EXTT4=
EXTT5=
EXTT6=
PLAYORDER=
